<?xml version="1.0" encoding="utf-8"?>
<!-- Svg Vector Icons : http://www.onlinewebfonts.com/icon -->
<!DOCTYPE svg PUBLIC "-//W3C//DTD SVG 1.1//EN" "http://www.w3.org/Graphics/SVG/1.1/DTD/svg11.dtd">
<svg version="1.1" xmlns="http://www.w3.org/2000/svg" xmlns:xlink="http://www.w3.org/1999/xlink" x="0px" y="0px" viewBox="0 0 1000 1000" enable-background="new 0 0 1000 1000" xml:space="preserve">
<metadata> Svg Vector Icons : http://www.onlinewebfonts.com/icon </metadata>
<g><path d="M545,86c0,0-192.3,0-256.4,0c-115,0-223.1,87.1-223.1,188c0,103.1,78.4,186.3,195.3,186.3c8.1,0,16-0.2,23.8-0.7c-7.6,14.5-13,30.9-13,47.9c0,28.7,15.4,51.9,34.9,70.8c-14.7,0-28.9,0.4-44.5,0.4c-142.4,0-252,90.7-252,184.7C10,856.1,130.2,914,272.5,914c162.3,0,252-92.1,252-184.7c0-74.3-21.9-118.7-89.7-166.7c-23.2-16.4-67.5-56.3-67.5-79.8c0-27.5,7.8-41,49.2-73.3C459,376.4,489,329.8,489,275.6c0-64.5-28.7-127.4-82.7-148.1h81.3L545,86L545,86z M455.5,713.3c2,8.6,3.1,17.4,3.1,26.4c0,74.8-48.2,133.3-186.6,133.3c-98.4,0-169.5-62.3-169.5-137.1c0-73.3,88.2-134.4,186.6-133.3c23,0.2,44.4,3.9,63.8,10.2C406.3,650,444.7,671,455.5,713.3L455.5,713.3z M297.9,434.2c-66.1-2-128.9-73.9-140.3-160.6c-11.4-86.8,32.9-153.2,98.9-151.2c66.1,2,128.9,71.6,140.3,158.4C408.2,367.4,363.9,436.2,297.9,434.2L297.9,434.2z M806.2,269.8V86H745v183.8H561.2V331H745v183.8h61.3V331H990v-61.3H806.2z"/></g>
</svg>